<svg version="1.1" id="Layer_1" xmlns="http://www.w3.org/2000/svg" xmlns:xlink="http://www.w3.org/1999/xlink" x="0px" y="0px"
	 width="100%" viewBox="0 0 192 192" enable-background="new 0 0 192 192" xml:space="preserve">
<path fill="#000000" opacity="1.000000" stroke="none" 
	d="
M1.000000,121.449982 
	C10.928437,132.157928 23.047939,140.150711 36.812992,145.753296 
	C39.225552,146.735245 41.595654,147.989273 45.765209,147.643280 
	C40.528076,144.417709 36.450058,141.702087 32.183201,139.325500 
	C25.655405,135.689590 19.160053,131.152328 15.989738,124.838676 
	C10.819763,114.542702 6.288379,104.058548 7.932657,91.228516 
	C9.300971,80.551781 15.871244,75.835030 22.807547,70.360558 
	C23.870390,69.521713 25.317459,68.643570 27.029686,69.436699 
	C27.994936,71.839333 25.857666,73.061760 24.850668,74.556656 
	C15.074756,89.069008 16.144140,101.909439 28.904469,113.972801 
	C42.048679,126.399078 58.333221,132.450943 75.830299,135.649429 
	C78.571487,136.150528 81.360237,136.391495 84.237152,136.335114 
	C75.487984,133.226562 66.705162,130.333603 58.304810,126.448265 
	C49.402111,122.330589 41.543961,116.881302 35.901142,108.662567 
	C28.017511,97.180115 29.523726,84.046776 39.836346,74.884415 
	C47.753975,67.849907 57.073696,62.247284 67.408577,61.922451 
	C79.274971,61.549492 90.179115,57.009956 101.787376,56.403839 
	C122.322586,55.331608 141.418289,59.797100 158.264008,72.083687 
	C160.344818,73.601341 162.667908,75.147705 163.166412,78.029587 
	C161.746933,79.840622 160.436890,77.290741 158.598160,78.355972 
	C165.420227,84.401917 168.942337,92.045799 169.409805,101.245903 
	C175.387131,97.271698 175.130249,94.018875 168.155441,78.092216 
	C172.318832,79.976418 175.932175,86.467232 176.275543,92.678780 
	C176.897919,103.936737 166.348267,116.305466 153.656982,118.999672 
	C144.531662,120.936852 136.024017,124.750641 127.236023,127.626694 
	C145.230789,126.992813 161.952377,122.747078 174.304413,108.496902 
	C182.218933,99.366142 181.130875,88.172852 172.491837,78.143845 
	C169.150894,74.265350 165.963516,70.254562 163.390778,67.134331 
	C169.307556,66.455009 181.494217,76.474167 192.721008,92.810547 
	C193.000000,99.021156 193.000000,105.042305 192.732849,111.732651 
	C188.255066,119.684174 183.013351,126.026443 175.938919,130.738907 
	C163.244873,139.194733 149.056870,143.622314 134.212036,146.287827 
	C129.138687,147.198807 124.054741,148.050766 118.975639,148.929688 
	C145.435028,150.825287 170.358871,146.212906 193.000000,132.000000 
	C193.000000,133.066666 193.000000,134.133347 192.665375,135.714417 
	C174.793289,146.064468 155.852295,150.327530 135.942429,152.805405 
	C115.572823,155.340469 96.300407,152.436859 76.753586,146.837860 
	C71.522438,139.912003 63.531036,141.970093 57.009903,139.720245 
	C63.376675,143.021500 69.731995,146.349533 77.044685,147.268829 
	C76.362099,150.408554 74.404366,148.963272 73.099892,148.505951 
	C59.827869,143.853119 45.848839,141.357407 36.247501,128.705948 
	C31.836859,122.894127 23.134781,120.395126 17.933121,114.238480 
	C18.548616,117.306091 20.326628,119.504272 22.106682,121.654060 
	C30.887053,132.258179 42.735802,138.450546 55.067085,143.584961 
	C89.684120,157.998566 125.589096,158.867020 162.037323,152.911240 
	C165.519287,152.342270 168.963470,151.016571 173.878128,152.359421 
	C165.812790,157.626938 158.004028,159.648682 149.321289,161.027908 
	C150.578827,158.404633 153.241760,159.540649 154.285004,157.327972 
	C149.838242,157.101120 144.855347,156.275681 141.846512,158.970505 
	C139.627319,160.958084 137.570892,161.830704 135.129883,162.184677 
	C114.434486,165.185898 93.757454,166.008194 73.008240,162.231232 
	C49.565941,157.964066 27.681374,150.179535 8.532491,135.592606 
	C6.048643,133.700500 4.302799,130.787430 1.000000,130.000000 
	C1.000000,127.299988 1.000000,124.599968 1.000000,121.449982 
M89.144272,71.040810 
	C87.814110,71.039703 86.446022,71.243263 85.159821,71.004944 
	C75.354988,69.188156 67.952797,72.853096 62.135941,80.647278 
	C54.744530,90.551262 59.408802,103.636459 71.552971,106.760094 
	C61.138996,98.619171 58.433510,91.521942 64.498077,86.818542 
	C70.491463,98.593376 81.320221,102.613487 93.383720,104.489433 
	C107.671776,106.711311 123.501144,102.710922 126.111069,96.178200 
	C125.622093,96.086586 125.092728,95.811722 124.706184,95.946487 
	C123.300438,96.436630 121.951622,97.086922 120.565025,97.635628 
	C110.259293,101.713829 100.082626,101.689468 90.234055,96.315529 
	C86.751709,94.415352 83.506477,91.687531 85.143410,87.183792 
	C86.696762,82.910027 90.684959,81.406418 94.940239,81.961517 
	C99.396042,82.542793 103.636314,81.526405 108.944489,81.603493 
	C102.120880,78.737167 94.310959,78.671982 88.664528,81.033035 
	C81.710136,83.941025 80.690453,85.627808 81.022240,93.475197 
	C81.047699,94.077232 80.700813,94.695015 80.479233,95.473244 
	C76.002731,95.161514 73.964119,92.256638 72.629974,88.735962 
	C71.120575,84.752815 73.047211,81.609375 75.634354,78.823387 
	C79.526184,74.632431 85.101448,73.434555 90.852173,70.932785 
	C99.524689,69.902489 108.204796,69.253609 116.919472,70.381416 
	C107.913994,69.111603 98.823303,64.059860 89.144272,71.040810 
M84.032677,121.707642 
	C86.512131,121.974442 88.985886,122.324524 91.471954,122.494606 
	C108.408554,123.653313 125.121300,122.975021 140.851700,115.632637 
	C146.625412,112.937683 151.996033,109.558372 155.276550,103.769371 
	C156.116165,102.287750 157.552032,100.775818 155.813156,98.753189 
	C131.994171,121.485275 104.575104,117.867554 76.489868,109.962334 
	C86.484825,115.582825 97.883842,116.380325 108.773239,119.244202 
	C91.896683,123.069351 76.110138,118.595139 60.406914,113.024223 
	C61.012791,113.697968 61.679108,114.156876 62.406437,114.477287 
	C69.128197,117.438400 76.190025,119.401093 84.032677,121.707642 
M108.262047,97.601288 
	C114.400917,96.812263 120.738457,96.068169 124.794441,90.770538 
	C126.921455,87.992386 128.648743,85.812454 132.813812,87.878654 
	C128.111267,79.511391 115.478333,74.442375 106.507591,77.059402 
	C108.200150,77.681290 109.607986,78.124756 110.952881,78.712311 
	C112.466713,79.373688 114.024506,80.014717 115.386726,80.927834 
	C119.510376,83.691963 120.673012,87.236343 118.380455,90.028366 
	C115.443825,93.604797 112.482277,92.938446 109.544350,89.035202 
	C104.138687,95.566681 97.292908,91.828728 90.898552,92.157791 
	C95.614670,97.022118 101.532463,97.243233 108.262047,97.601288 
M76.818962,154.847992 
	C69.854057,152.759705 62.889160,150.671432 55.924259,148.583145 
	C60.059937,151.737915 65.549660,151.996490 69.284531,155.265671 
	C69.326302,157.248444 67.317604,156.475983 66.926926,157.960938 
	C81.625061,160.933075 96.299652,162.731262 111.264282,161.111359 
	C99.909439,159.770477 88.768028,157.395142 76.818962,154.847992 
M73.120865,111.529816 
	C63.550476,106.462143 55.712872,100.130020 56.095856,87.748428 
	C53.698742,95.134857 58.575356,100.552582 61.512985,106.169006 
	C59.079739,107.478462 57.973175,105.465019 56.082829,106.112823 
	C64.422791,111.962967 73.364700,115.270073 83.309235,115.999825 
	C80.138115,114.617065 76.966995,113.234314 73.120865,111.529816 
M44.035065,100.391121 
	C42.399460,97.794853 40.763855,95.198586 38.615299,91.788094 
	C36.328579,96.775513 38.080044,100.206932 39.838215,103.938698 
	C44.485340,100.817627 46.454376,107.169762 50.800076,106.847214 
	C49.415604,103.680145 46.060528,103.248459 44.035065,100.391121 
M73.819176,100.761047 
	C71.467979,99.625908 69.694511,97.233391 66.452492,96.975075 
	C69.992485,104.266556 76.130775,107.334023 79.263428,103.628098 
	C77.630066,102.789146 76.022232,101.963310 73.819176,100.761047 
M186.190628,88.401260 
	C184.901627,86.827934 184.135788,84.671486 181.291733,83.987167 
	C182.152893,87.934753 182.916763,91.436295 183.807861,95.521156 
	C185.355927,94.332779 187.127777,94.938881 189.073471,94.293823 
	C188.115845,92.259552 187.344910,90.621864 186.190628,88.401260 
M181.903976,112.403458 
	C182.541153,113.082985 183.178329,113.762505 184.013718,114.653419 
	C186.141754,111.074150 187.827866,107.580109 186.045975,102.356033 
	C183.816147,105.855377 182.003738,108.557617 180.361588,111.359642 
	C179.840561,112.248665 180.704453,112.387733 181.903976,112.403458 
M156.252808,90.138756 
	C158.078003,89.584412 159.326294,88.721054 157.976624,86.633202 
	C156.488373,84.331024 154.990631,82.017563 151.618484,80.887871 
	C152.269501,83.788811 152.806061,86.141586 153.323074,88.498665 
	C153.608643,89.800606 153.690033,91.320595 156.252808,90.138756 
M127.200897,136.423798 
	C125.589836,136.846863 123.552658,136.429535 122.283585,139.416138 
	C127.417145,139.190536 131.723785,138.199951 135.889832,136.346786 
	C133.267548,136.346786 130.645279,136.346786 127.200897,136.423798 
M81.704552,65.438530 
	C86.323250,64.730728 90.941948,64.022926 95.560646,63.315125 
	C89.706467,61.846779 84.366966,63.501514 79.103874,65.694382 
	C79.749733,65.649101 80.395592,65.603821 81.704552,65.438530 
M83.901421,76.658340 
	C82.483208,77.640549 80.510353,78.088005 80.252960,80.698158 
	C84.094048,80.134247 87.170044,78.303627 91.466278,76.485580 
	C88.327789,76.386528 86.421188,75.252182 83.901421,76.658340 
M62.316113,120.416153 
	C64.773018,119.878098 64.699081,118.738159 62.741848,117.715202 
	C60.791180,116.695679 58.634872,116.069611 55.385513,114.813713 
	C57.382183,118.238708 59.649330,119.124306 62.316113,120.416153 
z"/>
<path fill="#000000" opacity="1.000000" stroke="none" 
	d="
M1.000000,139.437500 
	C13.520743,152.519012 29.437845,160.732330 46.114365,167.688309 
	C51.478844,169.925888 57.069836,171.615280 62.520824,173.652786 
	C65.211395,174.658478 68.271217,175.079926 70.241341,177.682236 
	C68.586617,179.873062 66.715889,178.756622 65.107323,178.363388 
	C43.502735,173.082031 23.563740,164.299927 6.220621,150.119339 
	C4.676637,148.856903 3.113389,147.618042 1.279543,146.184113 
	C1.000000,143.958328 1.000000,141.916672 1.000000,139.437500 
z"/>
<path fill="#000000" opacity="1.000000" stroke="none" 
	d="
M1.000000,161.375000 
	C13.726823,167.084381 26.308662,173.456223 39.958370,177.419006 
	C49.547699,180.202972 59.305065,182.216858 68.976669,184.617783 
	C70.176537,184.915649 71.705589,184.576218 72.625305,186.537659 
	C64.773026,186.906281 57.451668,185.174026 50.174480,183.405151 
	C33.128265,179.261749 17.007956,172.723862 1.341809,164.101807 
	C1.000000,163.250000 1.000000,162.500000 1.000000,161.375000 
z"/>
<path fill="#000000" opacity="1.000000" stroke="none" 
	d="
M193.000000,155.625000 
	C180.989746,162.213440 168.185654,166.379135 155.058060,170.191864 
	C155.681641,171.279648 156.055130,171.931168 156.417877,172.563950 
	C154.735855,174.827377 140.685730,174.845505 135.178543,171.676788 
	C155.562561,166.802902 174.889511,162.697891 192.664505,153.101288 
	C193.000000,153.750000 193.000000,154.500000 193.000000,155.625000 
z"/>
<path fill="#000000" opacity="1.000000" stroke="none" 
	d="
M1.000000,59.375000 
	C4.604855,58.310577 6.816174,55.291603 9.875436,53.675976 
	C11.881358,52.616627 13.726912,51.201420 16.534740,52.294422 
	C12.891102,57.472858 6.814529,58.909130 1.298982,61.817230 
	C1.000000,61.250000 1.000000,60.500000 1.000000,59.375000 
z"/>
<path fill="#000000" opacity="1.000000" stroke="none" 
	d="
M193.000000,80.666672 
	C189.936966,78.093224 185.171890,76.979958 182.900131,71.503052 
	C188.475998,71.919968 189.907211,76.052742 192.758911,78.773560 
	C193.000000,79.444443 193.000000,79.888893 193.000000,80.666672 
z"/>
<path fill="#000000" opacity="1.000000" stroke="none" 
	d="
M67.397903,55.090359 
	C72.054771,54.036335 76.206604,52.181156 82.038239,53.065655 
	C75.658432,57.800594 69.051559,57.076908 62.213097,58.999088 
	C63.486713,55.952385 65.476051,55.895996 67.397903,55.090359 
z"/>
<path fill="#000000" opacity="1.000000" stroke="none" 
	d="
M42.040619,54.560684 
	C39.724037,55.740013 37.647728,56.607903 34.500996,56.603069 
	C36.748573,53.898518 39.052639,52.706181 41.634766,52.367096 
	C43.601925,52.108776 43.471619,53.226048 42.040619,54.560684 
z"/>
</svg>